<svg width="52" height="51" viewBox="0 0 52 51" fill="none" xmlns="http://www.w3.org/2000/svg">
<path d="M50.5504 31.5504L44.3004 42.3754C43.0754 44.5254 40.8004 45.6504 38.5004 45.5004H33.5004V50.5004L27.2504 39.2504L33.5004 28.0004V33.0004H40.5504L35.0004 23.3754L45.8254 17.1254L50.3254 24.9254C51.6254 26.8504 51.8004 29.4254 50.5504 31.5504ZM19.0254 0.650391H31.5254C33.9754 0.650391 36.1004 2.07539 37.1254 4.12539L39.6254 8.47539L43.9504 5.97539L37.3504 17.0004L24.4754 17.2254L28.8004 14.7254L25.2754 8.60039L19.7504 18.2254L8.90039 11.9754L13.4004 4.17539C14.4254 2.10039 16.5504 0.650391 19.0254 0.650391ZM8.62539 42.4004L2.37539 31.5754C1.15039 29.4504 1.32539 26.9004 2.60039 24.9754L5.10039 20.6504L0.775391 18.1504L13.6254 18.3504L20.2504 29.4004L15.9254 26.9004L12.4004 33.0004H23.5004V45.5004H14.5004C13.3292 45.5852 12.1576 45.3396 11.119 44.7915C10.0805 44.2435 9.2165 43.4151 8.62539 42.4004Z" fill="#015C28"/>
</svg>
